<?xml version="1.0" encoding="UTF-8" standalone="no"?><!DOCTYPE svg PUBLIC "-//W3C//DTD SVG 1.1//EN" "http://www.w3.org/Graphics/SVG/1.1/DTD/svg11.dtd"><svg width="100%" height="100%" viewBox="0 0 1080 1080" version="1.1" xmlns="http://www.w3.org/2000/svg" xmlns:xlink="http://www.w3.org/1999/xlink" xml:space="preserve" xmlns:serif="http://www.serif.com/" style="fill-rule:evenodd;clip-rule:evenodd;stroke-linejoin:round;stroke-miterlimit:2;"><rect id="illustration-harmony" x="0" y="0" width="1080" height="1080" style="fill:none;"/><clipPath id="_clip1"><rect x="0" y="0" width="1080" height="1080"/></clipPath><g clip-path="url(#_clip1)"><path d="M540,540l540,-540l-540,-0l0,540Z" style="fill:url(#_Linear2);"/><path d="M540,540l540,540l0,-540l-540,-0Z" style="fill:url(#_Linear3);"/><path d="M540,540l540,540l-540,0l0,-540Z" style="fill:#cecece;"/><path d="M540,540l-540,540l0,-540l540,-0Z" style="fill:url(#_Linear4);"/><path d="M540,-0l0,540l-381.763,-381.763c97.746,-97.746 232.746,-158.237 381.763,-158.237Z" style="fill:url(#_Linear5);"/><path d="M540,540l540,-540l0,540l-540,0Z" style="fill:url(#_Linear6);"/><path d="M540,540l-540,540l540,0l0,-540Z" style="fill:url(#_Linear7);"/><path d="M0,540c0,-149.017 60.491,-284.017 158.237,-381.763l381.763,381.763l-540,0Z" style="fill:url(#_Linear8);"/></g><defs><linearGradient id="_Linear2" x1="0" y1="0" x2="1" y2="0" gradientUnits="userSpaceOnUse" gradientTransform="matrix(-540,540,-810,-810,1080,2.64855e-12)"><stop offset="0" style="stop-color:#d9d9d9;stop-opacity:1"/><stop offset="1" style="stop-color:#f9f9f9;stop-opacity:1"/></linearGradient><linearGradient id="_Linear3" x1="0" y1="0" x2="1" y2="0" gradientUnits="userSpaceOnUse" gradientTransform="matrix(-540,-540,810,-810,1080,1080)"><stop offset="0" style="stop-color:#f9f9f9;stop-opacity:1"/><stop offset="1" style="stop-color:#e8e8e8;stop-opacity:1"/></linearGradient><linearGradient id="_Linear4" x1="0" y1="0" x2="1" y2="0" gradientUnits="userSpaceOnUse" gradientTransform="matrix(540,-540,-810,-810,6.81781e-12,1080)"><stop offset="0" style="stop-color:#bbb;stop-opacity:1"/><stop offset="1" style="stop-color:#8d8d8d;stop-opacity:1"/></linearGradient><linearGradient id="_Linear5" x1="0" y1="0" x2="1" y2="0" gradientUnits="userSpaceOnUse" gradientTransform="matrix(540,540,810,-810,8.18545e-12,2.64855e-12)"><stop offset="0" style="stop-color:#646464;stop-opacity:1"/><stop offset="1" style="stop-color:#8d8d8d;stop-opacity:1"/></linearGradient><linearGradient id="_Linear6" x1="0" y1="0" x2="1" y2="0" gradientUnits="userSpaceOnUse" gradientTransform="matrix(-540,540,810,810,1080,3.63798e-12)"><stop offset="0" style="stop-color:#d9d9d9;stop-opacity:1"/><stop offset="1" style="stop-color:#e8e8e8;stop-opacity:1"/></linearGradient><linearGradient id="_Linear7" x1="0" y1="0" x2="1" y2="0" gradientUnits="userSpaceOnUse" gradientTransform="matrix(540,-540,810,810,8.18545e-12,1080)"><stop offset="0" style="stop-color:#d9d9d9;stop-opacity:1"/><stop offset="1" style="stop-color:#f0f0f0;stop-opacity:1"/></linearGradient><linearGradient id="_Linear8" x1="0" y1="0" x2="1" y2="0" gradientUnits="userSpaceOnUse" gradientTransform="matrix(540,540,-810,810,5.32238e-12,3.63798e-12)"><stop offset="0" style="stop-color:#8d8d8d;stop-opacity:1"/><stop offset="1" style="stop-color:#bbb;stop-opacity:1"/></linearGradient></defs></svg>