<?xml version="1.0" encoding="UTF-8" standalone="no"?><!DOCTYPE svg PUBLIC "-//W3C//DTD SVG 1.1//EN" "http://www.w3.org/Graphics/SVG/1.1/DTD/svg11.dtd"><svg width="100%" height="100%" viewBox="0 0 1080 1080" version="1.1" xmlns="http://www.w3.org/2000/svg" xmlns:xlink="http://www.w3.org/1999/xlink" xml:space="preserve" xmlns:serif="http://www.serif.com/" style="fill-rule:evenodd;clip-rule:evenodd;stroke-linejoin:round;stroke-miterlimit:2;"><rect id="illustration-perception" x="0" y="0" width="1080" height="1080" style="fill:none;"/><clipPath id="_clip1"><rect x="0" y="0" width="1080" height="1080"/></clipPath><g clip-path="url(#_clip1)"><path d="M270,-0c149.017,-0 270,120.983 270,270c0,149.017 -120.983,270 -270,270c-149.017,-0 -270,-120.983 -270,-270c0,-149.017 120.983,-270 270,-270Zm0,91.275c-98.641,0 -178.725,80.084 -178.725,178.725c0,98.641 80.084,178.725 178.725,178.725c98.641,-0 178.725,-80.084 178.725,-178.725c-0,-98.641 -80.084,-178.725 -178.725,-178.725Z" style="fill:url(#_Linear2);"/><g><path d="M540,90l450,450l90,-90l-450,-450l-90,90Z" style="fill:url(#_Linear3);"/><path d="M1080,90l-450,450l-90,-90l450,-450l90,90Z" style="fill:url(#_Linear4);"/></g><path d="M0,810c0,-149.017 60.491,-270 135,-270c74.509,0 135,120.983 135,270c0,-149.017 60.491,-270 135,-270c74.509,0 135,120.983 135,270l-270,270l-270,-270Z" style="fill:url(#_Linear5);"/><path d="M1080,540l0,540l-540,0l0,-540l540,0Zm-90,90l-360,-0l0,360l360,0l0,-360Z" style="fill:url(#_Linear6);"/></g><defs><linearGradient id="_Linear2" x1="0" y1="0" x2="1" y2="0" gradientUnits="userSpaceOnUse" gradientTransform="matrix(-540,540,-810,-810,540,-1.81899e-12)"><stop offset="0" style="stop-color:#f9f9f9;stop-opacity:1"/><stop offset="1" style="stop-color:#cecece;stop-opacity:1"/></linearGradient><linearGradient id="_Linear3" x1="0" y1="0" x2="1" y2="0" gradientUnits="userSpaceOnUse" gradientTransform="matrix(540,540,-540,540,540,0)"><stop offset="0" style="stop-color:#bbb;stop-opacity:1"/><stop offset="1" style="stop-color:#646464;stop-opacity:1"/></linearGradient><linearGradient id="_Linear4" x1="0" y1="0" x2="1" y2="0" gradientUnits="userSpaceOnUse" gradientTransform="matrix(540,540,-540,540,540,0)"><stop offset="0" style="stop-color:#bbb;stop-opacity:1"/><stop offset="1" style="stop-color:#646464;stop-opacity:1"/></linearGradient><linearGradient id="_Linear5" x1="0" y1="0" x2="1" y2="0" gradientUnits="userSpaceOnUse" gradientTransform="matrix(540,540,-540,540,1.81899e-12,540)"><stop offset="0" style="stop-color:#d9d9d9;stop-opacity:1"/><stop offset="1" style="stop-color:#8d8d8d;stop-opacity:1"/></linearGradient><linearGradient id="_Linear6" x1="0" y1="0" x2="1" y2="0" gradientUnits="userSpaceOnUse" gradientTransform="matrix(540.053,540.053,-540.053,540.053,539.947,539.947)"><stop offset="0" style="stop-color:#bbb;stop-opacity:1"/><stop offset="1" style="stop-color:#f0f0f0;stop-opacity:1"/></linearGradient></defs></svg>