<?xml version="1.0" encoding="UTF-8" standalone="no"?><!DOCTYPE svg PUBLIC "-//W3C//DTD SVG 1.1//EN" "http://www.w3.org/Graphics/SVG/1.1/DTD/svg11.dtd"><svg width="100%" height="100%" viewBox="0 0 1080 1080" version="1.1" xmlns="http://www.w3.org/2000/svg" xmlns:xlink="http://www.w3.org/1999/xlink" xml:space="preserve" xmlns:serif="http://www.serif.com/" style="fill-rule:evenodd;clip-rule:evenodd;stroke-linejoin:round;stroke-miterlimit:2;"><rect id="illustration-accesibility" x="0" y="0" width="1080" height="1080" style="fill:none;"/><clipPath id="_clip1"><rect x="0" y="0" width="1080" height="1080"/></clipPath><g clip-path="url(#_clip1)"><path d="M1080,360l-0,720l-1080,0l-0,-1080l720,0l360,360Z" style="fill:url(#_Linear2);"/><path d="M360,900l630,-630l90,90l-0,180l-540,540l-360,0l-180,-180l0,-360l360,360Z" style="fill:#f9f9f9;"/><path d="M900,270c-0,49.672 -40.328,90 -90,90l-630,-0c-49.672,-0 -90,-40.328 -90,-90c0,-49.672 40.328,-90 90,-90l630,-0c49.672,-0 90,40.328 90,90Z" style="fill:#bbb;"/><path d="M360,540c0,49.672 -40.328,90 -90,90l-90,0c-49.672,0 -90,-40.328 -90,-90c-0,-49.672 40.328,-90 90,-90l90,0c49.672,0 90,40.328 90,90Z" style="fill:#646464;"/><path d="M990,540c-0,49.672 -40.328,90 -90,90l-360,0c-49.672,0 -90,-40.328 -90,-90c0,-49.672 40.328,-90 90,-90l360,0c49.672,0 90,40.328 90,90Z" style="fill:#d9d9d9;"/><path d="M720,0l-0,360l360,0l-360,-360Z" style="fill:url(#_Linear3);"/></g><defs><linearGradient id="_Linear2" x1="0" y1="0" x2="1" y2="0" gradientUnits="userSpaceOnUse" gradientTransform="matrix(1080,1080,-1080,1080,0,0)"><stop offset="0" style="stop-color:#e0e0e0;stop-opacity:1"/><stop offset="1" style="stop-color:#f0f0f0;stop-opacity:1"/></linearGradient><linearGradient id="_Linear3" x1="0" y1="0" x2="1" y2="0" gradientUnits="userSpaceOnUse" gradientTransform="matrix(360,360,-360,360,720,0)"><stop offset="0" style="stop-color:#e0e0e0;stop-opacity:1"/><stop offset="1" style="stop-color:#bbb;stop-opacity:1"/></linearGradient></defs></svg>