<?xml version="1.0" encoding="UTF-8" standalone="no"?><!DOCTYPE svg PUBLIC "-//W3C//DTD SVG 1.1//EN" "http://www.w3.org/Graphics/SVG/1.1/DTD/svg11.dtd"><svg width="100%" height="100%" viewBox="0 0 1080 1080" version="1.1" xmlns="http://www.w3.org/2000/svg" xmlns:xlink="http://www.w3.org/1999/xlink" xml:space="preserve" xmlns:serif="http://www.serif.com/" style="fill-rule:evenodd;clip-rule:evenodd;stroke-linejoin:round;stroke-miterlimit:2;"><rect id="illustration-design" x="0" y="0" width="1080" height="1080" style="fill:none;"/><clipPath id="_clip1"><rect x="0" y="0" width="1080" height="1080"/></clipPath><g clip-path="url(#_clip1)"><path d="M1080,0l-540,1080l540,0l0,-1080Z" style="fill:url(#_Linear2);"/><path d="M540,270l-540,810l540,0l0,-810Z" style="fill:url(#_Linear3);"/><rect x="0" y="540" width="1080" height="540" style="fill:#646464;"/><path d="M0,1080l0,-540l360,0l-360,540Z" style="fill:url(#_Linear4);"/><path d="M540,1080l0,-540l270,0l-270,540Z" style="fill:url(#_Linear5);"/></g><defs><linearGradient id="_Linear2" x1="0" y1="0" x2="1" y2="0" gradientUnits="userSpaceOnUse" gradientTransform="matrix(-6.61309e-14,-1080,1080,-6.61309e-14,1080,1080)"><stop offset="0" style="stop-color:#f0f0f0;stop-opacity:1"/><stop offset="1" style="stop-color:#8d8d8d;stop-opacity:1"/></linearGradient><linearGradient id="_Linear3" x1="0" y1="0" x2="1" y2="0" gradientUnits="userSpaceOnUse" gradientTransform="matrix(-6.61309e-14,-1080,1080,-6.61309e-14,540,1080)"><stop offset="0" style="stop-color:#f0f0f0;stop-opacity:1"/><stop offset="1" style="stop-color:#8d8d8d;stop-opacity:1"/></linearGradient><linearGradient id="_Linear4" x1="0" y1="0" x2="1" y2="0" gradientUnits="userSpaceOnUse" gradientTransform="matrix(-1.83163e-12,-540,540,-1.83163e-12,270,1080)"><stop offset="0" style="stop-color:#f0f0f0;stop-opacity:1"/><stop offset="1" style="stop-color:#d9d9d9;stop-opacity:1"/></linearGradient><linearGradient id="_Linear5" x1="0" y1="0" x2="1" y2="0" gradientUnits="userSpaceOnUse" gradientTransform="matrix(-1.83163e-12,-540,540,-1.83163e-12,1350,1080)"><stop offset="0" style="stop-color:#f0f0f0;stop-opacity:1"/><stop offset="1" style="stop-color:#d9d9d9;stop-opacity:1"/></linearGradient></defs></svg>