<?xml version="1.0" encoding="UTF-8" standalone="no"?><!DOCTYPE svg PUBLIC "-//W3C//DTD SVG 1.1//EN" "http://www.w3.org/Graphics/SVG/1.1/DTD/svg11.dtd"><svg width="100%" height="100%" viewBox="0 0 1080 1080" version="1.1" xmlns="http://www.w3.org/2000/svg" xmlns:xlink="http://www.w3.org/1999/xlink" xml:space="preserve" xmlns:serif="http://www.serif.com/" style="fill-rule:evenodd;clip-rule:evenodd;stroke-linejoin:round;stroke-miterlimit:2;"><rect id="illustration-theory" x="0" y="0" width="1080" height="1080" style="fill:none;"/><clipPath id="_clip1"><rect x="0" y="0" width="1080" height="1080"/></clipPath><g clip-path="url(#_clip1)"><path d="M90,0c49.672,0 90,40.328 90,90l0,900c0,49.672 -40.328,90 -90,90c-49.672,0 -90,-40.328 -90,-90l0,-900c0,-49.672 40.328,-90 90,-90Z" style="fill:#d9d9d9;"/><path d="M630,0c49.672,0 90,40.328 90,90l0,900c0,49.672 -40.328,90 -90,90c-49.672,0 -90,-40.328 -90,-90l0,-900c0,-49.672 40.328,-90 90,-90Z" style="fill:#d9d9d9;"/><path d="M810,540l270,0l0,540l-270,0l0,-540Z" style="fill:url(#_Linear2);"/><path d="M810,90l90,-90l90,0l90,90l0,360l-90,90l-90,-0l-90,-90l0,-360Z" style="fill:url(#_Linear3);"/><path d="M360,0c49.672,0 90,40.328 90,90l-0,900c-0,49.672 -40.328,90 -90,90c-49.672,0 -90,-40.328 -90,-90l0,-900c0,-49.672 40.328,-90 90,-90Z" style="fill:#d9d9d9;"/><path d="M360,540c49.672,0 90,40.328 90,90l0,180c0,49.672 -40.328,90 -90,90c-49.672,0 -90,-40.328 -90,-90l0,-180c0,-49.672 40.328,-90 90,-90Z" style="fill:url(#_Linear4);"/><path d="M90,180c49.672,0 90,40.328 90,90l0,180c0,49.672 -40.328,90 -90,90c-49.672,-0 -90,-40.328 -90,-90l0,-180c0,-49.672 40.328,-90 90,-90Z" style="fill:url(#_Linear5);"/><path d="M630,0c49.672,0 90,40.328 90,90l0,180c0,49.672 -40.328,90 -90,90c-49.672,-0 -90,-40.328 -90,-90l0,-180c0,-49.672 40.328,-90 90,-90Z" style="fill:url(#_Linear6);"/></g><defs><linearGradient id="_Linear2" x1="0" y1="0" x2="1" y2="0" gradientUnits="userSpaceOnUse" gradientTransform="matrix(270,9.78188e-29,1.12034e-12,270,810,1080)"><stop offset="0" style="stop-color:#f0f0f0;stop-opacity:1"/><stop offset="1" style="stop-color:#d9d9d9;stop-opacity:1"/></linearGradient><linearGradient id="_Linear3" x1="0" y1="0" x2="1" y2="0" gradientUnits="userSpaceOnUse" gradientTransform="matrix(270,9.78188e-29,1.12034e-12,270,810,540)"><stop offset="0" style="stop-color:#bbb;stop-opacity:1"/><stop offset="1" style="stop-color:#838383;stop-opacity:1"/></linearGradient><linearGradient id="_Linear4" x1="0" y1="0" x2="1" y2="0" gradientUnits="userSpaceOnUse" gradientTransform="matrix(180,-360,289.141,144.571,270,900)"><stop offset="0" style="stop-color:#8d8d8d;stop-opacity:1"/><stop offset="1" style="stop-color:#646464;stop-opacity:1"/></linearGradient><linearGradient id="_Linear5" x1="0" y1="0" x2="1" y2="0" gradientUnits="userSpaceOnUse" gradientTransform="matrix(180,-360,292.564,146.282,7.10543e-13,540)"><stop offset="0" style="stop-color:#bbb;stop-opacity:1"/><stop offset="1" style="stop-color:#838383;stop-opacity:1"/></linearGradient><linearGradient id="_Linear6" x1="0" y1="0" x2="1" y2="0" gradientUnits="userSpaceOnUse" gradientTransform="matrix(180,-360,251.49,125.745,540,360)"><stop offset="0" style="stop-color:#cecece;stop-opacity:1"/><stop offset="1" style="stop-color:#bbb;stop-opacity:1"/></linearGradient></defs></svg>