<?xml version="1.0" encoding="UTF-8" standalone="no"?><!DOCTYPE svg PUBLIC "-//W3C//DTD SVG 1.1//EN" "http://www.w3.org/Graphics/SVG/1.1/DTD/svg11.dtd"><svg width="100%" height="100%" viewBox="0 0 48 48" version="1.1" xmlns="http://www.w3.org/2000/svg" xmlns:xlink="http://www.w3.org/1999/xlink" xml:space="preserve" xmlns:serif="http://www.serif.com/" style="fill-rule:evenodd;clip-rule:evenodd;stroke-linejoin:round;stroke-miterlimit:2;"><rect id="favicon" x="0" y="0" width="48" height="48" style="fill:none;"/><path d="M48,6l0,36c0,3.311 -2.689,6 -6,6l-36,0c-3.311,0 -6,-2.689 -6,-6l0,-36c0,-3.311 2.689,-6 6,-6l36,0c3.311,0 6,2.689 6,6Z" style="fill:url(#_Linear1);"/><path d="M9.678,39.12l10.71,-29.4l7.224,-0l10.71,29.4l-6.678,-0l-7.686,-22.302l-7.686,22.302l-6.594,-0Zm4.662,-6.426l1.68,-4.872l15.414,0l1.638,4.872l-18.732,-0Z" style="fill:#202020;fill-rule:nonzero;"/><defs><linearGradient id="_Linear1" x1="0" y1="0" x2="1" y2="0" gradientUnits="userSpaceOnUse" gradientTransform="matrix(2.93915e-15,48,-48,2.93915e-15,0,0)"><stop offset="0" style="stop-color:#f0f0f0;stop-opacity:1"/><stop offset="1" style="stop-color:#8d8d8d;stop-opacity:1"/></linearGradient></defs></svg>